<svg viewBox="0 0 980 620" xmlns="http://www.w3.org/2000/svg" role="img" aria-label="No userspace o agente tenta executar um binário; a syscall execve passa pelo ponto LSM bprm_check_security no kernel; um programa eBPF verificado consulta a blocklist e nega com -EPERM se bater.">
  <defs>
    <marker id="arr2" viewBox="0 0 10 10" refX="8.5" refY="5" markerWidth="7.5" markerHeight="7.5" orient="auto-start-reverse"><path d="M0 0L10 5L0 10z" fill="#56708f"/></marker>
    <marker id="arr2Ok" viewBox="0 0 10 10" refX="8.5" refY="5" markerWidth="7.5" markerHeight="7.5" orient="auto-start-reverse"><path d="M0 0L10 5L0 10z" fill="#5fd38a"/></marker>
    <marker id="arr2Bad" viewBox="0 0 10 10" refX="8.5" refY="5" markerWidth="7.5" markerHeight="7.5" orient="auto-start-reverse"><path d="M0 0L10 5L0 10z" fill="#ff6b6b"/></marker>
  </defs>
  <style>
    text{font-family:'Segoe UI',system-ui,-apple-system,Roboto,sans-serif}
    .t{fill:#e8edf6;font-size:15px;font-weight:600}
    .s{fill:#8595ab;font-size:12px}
    .m{font-family:'JetBrains Mono',ui-monospace,Consolas,monospace}
    .band{font-size:11px;font-weight:700;letter-spacing:.2em}
    .edge{stroke:#56708f;stroke-width:1.6;fill:none}
  </style>

  <!-- banda userspace -->
  <rect x="20" y="16" width="940" height="150" rx="12" fill="#0d1424" opacity=".55" stroke="#243043"/>
  <text x="42" y="44" class="band m" fill="#5aa9ff">USERSPACE</text>
  <rect x="340" y="60" width="300" height="80" rx="10" fill="#121826" stroke="#38e1d3"/>
  <text x="490" y="92" text-anchor="middle" class="t">agente tenta executar um binário</text>
  <text x="490" y="116" text-anchor="middle" class="s m" fill="#38e1d3">execve("...")</text>

  <!-- fronteira -->
  <path class="edge" d="M490 140 V194" marker-end="url(#arr2)"/>
  <text x="505" y="182" class="s m" fill="#8595ab">syscall</text>

  <!-- banda kernel -->
  <rect x="20" y="198" width="940" height="402" rx="12" fill="#14101f" opacity=".55" stroke="#2c2440"/>
  <text x="42" y="226" class="band m" fill="#b794f6">KERNEL</text>

  <rect x="340" y="238" width="300" height="70" rx="10" fill="#1e1830" stroke="#b794f6"/>
  <text x="490" y="266" text-anchor="middle" class="t" fill="#efe6ff">hook LSM</text>
  <text x="490" y="290" text-anchor="middle" class="s m" fill="#b794f6">bprm_check_security</text>

  <path class="edge" d="M490 308 V336" marker-end="url(#arr2)"/>

  <rect x="340" y="338" width="300" height="76" rx="10" fill="#1e1830" stroke="#b794f6"/>
  <text x="490" y="368" text-anchor="middle" class="t" fill="#efe6ff">programa eBPF</text>
  <text x="490" y="392" text-anchor="middle" class="s" fill="#b9a8dc">verificado antes de carregar (seguro)</text>

  <path class="edge" d="M490 414 V442" marker-end="url(#arr2)"/>

  <!-- decisão -->
  <polygon points="490,444 616,506 490,568 364,506" fill="#121826" stroke="#38e1d3"/>
  <text x="490" y="500" text-anchor="middle" class="t">binário na</text>
  <text x="490" y="522" text-anchor="middle" class="t">blocklist?</text>

  <!-- não → permite -->
  <path class="edge" d="M600 470 C660 430 690 416 728 412" stroke="#5fd38a" marker-end="url(#arr2Ok)"/>
  <text x="665" y="416" text-anchor="middle" class="s m" fill="#5fd38a">não</text>
  <rect x="730" y="380" width="220" height="64" rx="10" fill="#0e2a1a" stroke="#5fd38a"/>
  <text x="840" y="407" text-anchor="middle" class="t" fill="#d7ffe6">permite o exec</text>
  <text x="840" y="429" text-anchor="middle" class="s" fill="#9fd8b4">a syscall segue normal</text>

  <!-- sim → -EPERM -->
  <path class="edge" d="M600 540 C660 566 690 572 728 574" stroke="#ff6b6b" marker-end="url(#arr2Bad)"/>
  <text x="665" y="590" text-anchor="middle" class="s m" fill="#ff6b6b">sim</text>
  <rect x="730" y="510" width="220" height="76" rx="10" fill="#2a1014" stroke="#ff6b6b"/>
  <text x="840" y="542" text-anchor="middle" class="t m" fill="#ffd7d7">-EPERM</text>
  <text x="840" y="566" text-anchor="middle" class="s" fill="#e8a0a0">o exec morre antes de nascer</text>

  <!-- nota backstop -->
  <rect x="60" y="452" width="260" height="108" rx="8" fill="#0c1019" stroke="#21a99e" stroke-dasharray="4 3"/>
  <text x="190" y="484" text-anchor="middle" class="t" fill="#b8c4d6" font-size="13">rede de contenção</text>
  <text x="190" y="508" text-anchor="middle" class="s" fill="#b8c4d6">funciona mesmo se a IDE</text>
  <text x="190" y="526" text-anchor="middle" class="s" fill="#b8c4d6">pular o hook pretool.</text>
  <text x="190" y="544" text-anchor="middle" class="s" fill="#b8c4d6">Linux · opt-in</text>
  <path d="M320 506 H358" fill="none" stroke="#21a99e" stroke-width="1.2" stroke-dasharray="4 3"/>
</svg>
