<svg viewBox="0 0 980 430" xmlns="http://www.w3.org/2000/svg" role="img" aria-label="O caminho do programa eBPF: fonte C compilada pelo clang em bytecode BPF, aprovada pelo verifier do kernel, convertida por JIT e ancorada no hook LSM; os mapas BPF são a ponte entre o userspace, que escreve as regras, e o kernel, que as consulta.">
  <defs>
    <marker id="arr2b" viewBox="0 0 10 10" refX="8.5" refY="5" markerWidth="7.5" markerHeight="7.5" orient="auto-start-reverse"><path d="M0 0L10 5L0 10z" fill="#56708f"/></marker>
    <marker id="arr2bT" viewBox="0 0 10 10" refX="8.5" refY="5" markerWidth="7" markerHeight="7" orient="auto-start-reverse"><path d="M0 0L10 5L0 10z" fill="#21a99e"/></marker>
  </defs>
  <style>
    text{font-family:'Segoe UI',system-ui,-apple-system,Roboto,sans-serif}
    .t{fill:#e8edf6;font-size:14px;font-weight:600}
    .s{fill:#8595ab;font-size:12px}
    .m{font-family:'JetBrains Mono',ui-monospace,Consolas,monospace}
    .edge{stroke:#56708f;stroke-width:1.6;fill:none}
  </style>

  <!-- pipeline de carga -->
  <rect x="20" y="50" width="160" height="80" rx="10" fill="#121826" stroke="#38e1d3"/>
  <text x="100" y="82" text-anchor="middle" class="t">fonte C</text>
  <text x="100" y="104" text-anchor="middle" class="s">do programa eBPF</text>

  <path class="edge" d="M180 90 H216" marker-end="url(#arr2b)"/>

  <rect x="218" y="50" width="170" height="80" rx="10" fill="#121826" stroke="#38e1d3"/>
  <text x="303" y="82" text-anchor="middle" class="t m" fill="#38e1d3">clang</text>
  <text x="303" y="104" text-anchor="middle" class="s">→ bytecode BPF</text>

  <path class="edge" d="M388 90 H424" marker-end="url(#arr2b)"/>

  <rect x="426" y="34" width="230" height="112" rx="10" fill="#1e1830" stroke="#b794f6" stroke-width="1.6"/>
  <text x="541" y="66" text-anchor="middle" class="t" fill="#efe6ff">VERIFIER do kernel</text>
  <text x="541" y="90" text-anchor="middle" class="s" fill="#b9a8dc">prova que o programa termina</text>
  <text x="541" y="108" text-anchor="middle" class="s" fill="#b9a8dc">e não acessa memória inválida;</text>
  <text x="541" y="126" text-anchor="middle" class="s" fill="#b9a8dc">o que não prova, ele rejeita</text>

  <path class="edge" d="M656 90 H692" marker-end="url(#arr2b)"/>

  <rect x="694" y="50" width="120" height="80" rx="10" fill="#121826" stroke="#38e1d3"/>
  <text x="754" y="82" text-anchor="middle" class="t m" fill="#38e1d3">JIT</text>
  <text x="754" y="104" text-anchor="middle" class="s">código nativo</text>

  <path class="edge" d="M814 90 H850" marker-end="url(#arr2b)"/>

  <rect x="852" y="42" width="110" height="96" rx="10" fill="#1e1830" stroke="#b794f6"/>
  <text x="907" y="76" text-anchor="middle" class="t" fill="#efe6ff">hook</text>
  <text x="907" y="96" text-anchor="middle" class="t" fill="#efe6ff">LSM</text>
  <text x="907" y="118" text-anchor="middle" class="s" fill="#b9a8dc">ancorado</text>

  <!-- mapas BPF -->
  <rect x="330" y="220" width="320" height="84" rx="10" fill="#0d1f1d" stroke="#38e1d3"/>
  <text x="490" y="252" text-anchor="middle" class="t">mapas BPF</text>
  <text x="490" y="276" text-anchor="middle" class="s">tabelas compartilhadas: blocklist de exec,</text>
  <text x="490" y="292" text-anchor="middle" class="s">allowlist de egress (CIDR:porta)</text>

  <!-- userspace escreve -->
  <rect x="20" y="220" width="240" height="84" rx="10" fill="#0d1424" stroke="#5aa9ff"/>
  <text x="140" y="252" text-anchor="middle" class="t">nemesis (userspace)</text>
  <text x="140" y="276" text-anchor="middle" class="s" fill="#9db8dc">escreve as regras nos mapas</text>
  <text x="140" y="292" text-anchor="middle" class="s m" fill="#9db8dc">allowlist-ebpf.toml</text>

  <path d="M260 262 H326" fill="none" stroke="#21a99e" stroke-width="1.4" stroke-dasharray="5 4" marker-end="url(#arr2bT)"/>

  <!-- kernel consulta -->
  <path d="M652 262 C760 262 860 210 900 144" fill="none" stroke="#21a99e" stroke-width="1.4" stroke-dasharray="5 4" marker-end="url(#arr2bT)"/>
  <text x="800" y="248" text-anchor="middle" class="s m" fill="#21a99e">o hook consulta a cada exec</text>

  <!-- nota -->
  <rect x="190" y="348" width="600" height="56" rx="8" fill="#0c1019" stroke="#21a99e" stroke-dasharray="4 3"/>
  <text x="490" y="372" text-anchor="middle" class="s" fill="#b8c4d6">O kernel só executa o que o verifier aprovou: um programa eBPF não trava nem derruba a máquina.</text>
  <text x="490" y="392" text-anchor="middle" class="s" fill="#b8c4d6">Os mapas permitem atualizar regras sem recompilar nem recarregar o kernel.</text>
</svg>
