<svg viewBox="0 0 980 490" xmlns="http://www.w3.org/2000/svg" role="img" aria-label="A hostile file targets the scanner itself; Rust guarantees answer: error as value, panic converted into exit 2, linear-time regex without ReDoS, and depth plus size limits. Everything converges to fail-closed: when in doubt, deny.">
  <defs>
    <marker id="arr4" viewBox="0 0 10 10" refX="8.5" refY="5" markerWidth="7.5" markerHeight="7.5" orient="auto-start-reverse"><path d="M0 0L10 5L0 10z" fill="#56708f"/></marker>
    <marker id="arr4Ok" viewBox="0 0 10 10" refX="8.5" refY="5" markerWidth="7.5" markerHeight="7.5" orient="auto-start-reverse"><path d="M0 0L10 5L0 10z" fill="#5fd38a"/></marker>
  </defs>
  <style>
    text{font-family:'Segoe UI',system-ui,-apple-system,Roboto,sans-serif}
    .t{fill:#e8edf6;font-size:14px;font-weight:600}
    .s{fill:#8595ab;font-size:12px}
    .m{font-family:'JetBrains Mono',ui-monospace,Consolas,monospace}
    .edge{stroke:#56708f;stroke-width:1.6;fill:none}
  </style>

  <!-- ataque -->
  <rect x="340" y="24" width="300" height="64" rx="10" fill="#2a1014" stroke="#ff6b6b"/>
  <text x="490" y="51" text-anchor="middle" class="t" fill="#ffd7d7">hostile file targets the scanner itself</text>
  <text x="490" y="73" text-anchor="middle" class="s" fill="#e8a0a0">nested payload · regex bomb · panic</text>

  <path class="edge" d="M490 88 V116" marker-end="url(#arr4)"/>

  <!-- hub -->
  <rect x="390" y="118" width="200" height="54" rx="10" fill="#121826" stroke="#38e1d3"/>
  <text x="490" y="150" text-anchor="middle" class="t">Rust guarantees</text>

  <!-- ramos -->
  <path class="edge" d="M420 172 C300 200 180 216 128 230" marker-end="url(#arr4)"/>
  <path class="edge" d="M460 172 C420 200 390 216 368 230" marker-end="url(#arr4)"/>
  <path class="edge" d="M520 172 C560 200 590 216 612 230" marker-end="url(#arr4)"/>
  <path class="edge" d="M560 172 C680 200 800 216 852 230" marker-end="url(#arr4)"/>

  <!-- 4 garantias -->
  <rect x="20" y="234" width="215" height="92" rx="10" fill="#121826" stroke="#38e1d3"/>
  <text x="127" y="264" text-anchor="middle" class="t">error as value</text>
  <text x="127" y="286" text-anchor="middle" class="s m" fill="#38e1d3">Result&lt;T, E&gt;</text>
  <text x="127" y="306" text-anchor="middle" class="s">no unhandled exception</text>

  <rect x="255" y="234" width="215" height="92" rx="10" fill="#121826" stroke="#38e1d3"/>
  <text x="362" y="264" text-anchor="middle" class="t">panic contained</text>
  <text x="362" y="286" text-anchor="middle" class="s m" fill="#38e1d3">catch_unwind</text>
  <text x="362" y="306" text-anchor="middle" class="s">converts panic into exit 2</text>

  <rect x="490" y="234" width="215" height="92" rx="10" fill="#121826" stroke="#38e1d3"/>
  <text x="597" y="264" text-anchor="middle" class="t">linear-time regex</text>
  <text x="597" y="286" text-anchor="middle" class="s">no backtracking:</text>
  <text x="597" y="306" text-anchor="middle" class="s">immune to ReDoS</text>

  <rect x="725" y="234" width="235" height="92" rx="10" fill="#121826" stroke="#38e1d3"/>
  <text x="842" y="264" text-anchor="middle" class="t">recursion limits</text>
  <text x="842" y="286" text-anchor="middle" class="s">depth + size:</text>
  <text x="842" y="306" text-anchor="middle" class="s">nested payload cannot blow up</text>

  <!-- convergência -->
  <path class="edge" d="M127 326 C180 372 260 392 300 400" stroke="#5fd38a" marker-end="url(#arr4Ok)"/>
  <path class="edge" d="M362 326 C380 360 400 380 416 392" stroke="#5fd38a" marker-end="url(#arr4Ok)"/>
  <path class="edge" d="M597 326 C580 360 560 380 546 392" stroke="#5fd38a" marker-end="url(#arr4Ok)"/>
  <path class="edge" d="M842 326 C790 372 710 392 672 400" stroke="#5fd38a" marker-end="url(#arr4Ok)"/>

  <rect x="290" y="398" width="400" height="68" rx="10" fill="#0e2a1a" stroke="#5fd38a" stroke-width="1.6"/>
  <text x="490" y="428" text-anchor="middle" class="t" fill="#d7ffe6">FAIL-CLOSED</text>
  <text x="490" y="450" text-anchor="middle" class="s" fill="#9fd8b4">when in doubt, deny: an error never becomes an open door</text>
</svg>
