<svg viewBox="0 0 980 440" xmlns="http://www.w3.org/2000/svg" role="img" aria-label="Comparison: under fail-open, an internal error is swallowed and the action passes unscanned, becoming the attack vector itself; under Nemesis fail-closed, the panic is captured and becomes exit 2, so the error never opens the door.">
  <defs>
    <marker id="arr4b" viewBox="0 0 10 10" refX="8.5" refY="5" markerWidth="7.5" markerHeight="7.5" orient="auto-start-reverse"><path d="M0 0L10 5L0 10z" fill="#56708f"/></marker>
    <marker id="arr4bBad" viewBox="0 0 10 10" refX="8.5" refY="5" markerWidth="7.5" markerHeight="7.5" orient="auto-start-reverse"><path d="M0 0L10 5L0 10z" fill="#ff6b6b"/></marker>
    <marker id="arr4bOk" viewBox="0 0 10 10" refX="8.5" refY="5" markerWidth="7.5" markerHeight="7.5" orient="auto-start-reverse"><path d="M0 0L10 5L0 10z" fill="#5fd38a"/></marker>
  </defs>
  <style>
    text{font-family:'Segoe UI',system-ui,-apple-system,Roboto,sans-serif}
    .t{fill:#e8edf6;font-size:14px;font-weight:600}
    .s{fill:#8595ab;font-size:12px}
    .m{font-family:'JetBrains Mono',ui-monospace,Consolas,monospace}
    .edge{stroke:#56708f;stroke-width:1.6;fill:none}
  </style>

  <!-- origem -->
  <rect x="340" y="20" width="300" height="60" rx="10" fill="#121826" stroke="#38e1d3"/>
  <text x="490" y="46" text-anchor="middle" class="t">internal error during the scan</text>
  <text x="490" y="68" text-anchor="middle" class="s">panic, bug, input that crashes the parser</text>

  <path class="edge" d="M400 80 C320 104 280 116 250 128" marker-end="url(#arr4b)"/>
  <path class="edge" d="M580 80 C660 104 700 116 730 128" marker-end="url(#arr4b)"/>

  <!-- coluna fail-open -->
  <rect x="60" y="132" width="380" height="238" rx="12" fill="#2a1014" opacity=".35" stroke="#ff6b6b" stroke-dasharray="6 4"/>
  <text x="250" y="164" text-anchor="middle" class="t m" fill="#ff6b6b">FAIL-OPEN (the anti-pattern)</text>

  <rect x="100" y="184" width="300" height="52" rx="8" fill="#121826" stroke="#56708f"/>
  <text x="250" y="216" text-anchor="middle" class="s" fill="#b8c4d6">the error is silently swallowed</text>
  <path class="edge" d="M250 236 V256" stroke="#ff6b6b" marker-end="url(#arr4bBad)"/>
  <rect x="100" y="258" width="300" height="52" rx="8" fill="#121826" stroke="#56708f"/>
  <text x="250" y="290" text-anchor="middle" class="s" fill="#b8c4d6">the action passes unscanned</text>
  <path class="edge" d="M250 310 V330" stroke="#ff6b6b" marker-end="url(#arr4bBad)"/>
  <text x="250" y="356" text-anchor="middle" class="t" fill="#ff6b6b">✗ crashing the scanner becomes the attack itself</text>

  <!-- coluna fail-closed -->
  <rect x="540" y="132" width="380" height="238" rx="12" fill="#0e2a1a" opacity=".35" stroke="#5fd38a"/>
  <text x="730" y="164" text-anchor="middle" class="t m" fill="#5fd38a">FAIL-CLOSED (Nemesis)</text>

  <rect x="580" y="184" width="300" height="52" rx="8" fill="#121826" stroke="#56708f"/>
  <text x="730" y="210" text-anchor="middle" class="s" fill="#b8c4d6">the panic is captured</text>
  <text x="730" y="228" text-anchor="middle" class="s m" fill="#38e1d3">catch_unwind</text>
  <path class="edge" d="M730 236 V256" stroke="#5fd38a" marker-end="url(#arr4bOk)"/>
  <rect x="580" y="258" width="300" height="52" rx="8" fill="#121826" stroke="#56708f"/>
  <text x="730" y="284" text-anchor="middle" class="s" fill="#b8c4d6">the session ends with a verdict</text>
  <text x="730" y="302" text-anchor="middle" class="s m" fill="#38e1d3">exit 2: nothing executes</text>
  <path class="edge" d="M730 310 V330" stroke="#5fd38a" marker-end="url(#arr4bOk)"/>
  <text x="730" y="356" text-anchor="middle" class="t" fill="#5fd38a">✓ the error never opens the door</text>

  <!-- nota -->
  <rect x="240" y="392" width="500" height="36" rx="8" fill="#0c1019" stroke="#21a99e" stroke-dasharray="4 3"/>
  <text x="490" y="415" text-anchor="middle" class="s" fill="#b8c4d6">When in doubt, a security system denies: it never lets something through by mistake.</text>
</svg>
