<svg viewBox="0 0 980 430" xmlns="http://www.w3.org/2000/svg" role="img" aria-label="O conteúdo passa por um pipeline do mais barato ao mais caro: byte/Unicode, entropia, regex, manifesto, config de IDE, cadeia de exfil, AST com visitors e o decoder recursivo que revela e reescaneia; o resultado é a severidade.">
  <defs>
    <marker id="arr5" viewBox="0 0 10 10" refX="8.5" refY="5" markerWidth="7.5" markerHeight="7.5" orient="auto-start-reverse"><path d="M0 0L10 5L0 10z" fill="#56708f"/></marker>
    <marker id="arr5A" viewBox="0 0 10 10" refX="8.5" refY="5" markerWidth="7.5" markerHeight="7.5" orient="auto-start-reverse"><path d="M0 0L10 5L0 10z" fill="#f5b54a"/></marker>
    <linearGradient id="custo5" x1="0%" y1="0%" x2="100%" y2="0%">
      <stop offset="0%" stop-color="#38e1d3"/><stop offset="100%" stop-color="#f5b54a"/>
    </linearGradient>
  </defs>
  <style>
    text{font-family:'Segoe UI',system-ui,-apple-system,Roboto,sans-serif}
    .t{fill:#e8edf6;font-size:13.5px;font-weight:600}
    .s{fill:#8595ab;font-size:11.5px}
    .m{font-family:'JetBrains Mono',ui-monospace,Consolas,monospace}
    .n{fill:#38e1d3;font-size:10.5px;font-weight:700}
    .edge{stroke:#56708f;stroke-width:1.6;fill:none}
  </style>

  <!-- régua de custo -->
  <rect x="25" y="24" width="925" height="4" rx="2" fill="url(#custo5)" opacity=".8"/>
  <text x="25" y="16" class="s m" fill="#38e1d3">barato</text>
  <text x="950" y="16" text-anchor="end" class="s m" fill="#f5b54a">caro</text>

  <!-- fileira 1 -->
  <rect x="25" y="52" width="205" height="72" rx="10" fill="#121826" stroke="#38e1d3"/>
  <text x="41" y="76" class="n m">1</text>
  <text x="127" y="80" text-anchor="middle" class="t">byte / Unicode</text>
  <text x="127" y="102" text-anchor="middle" class="s">invisíveis, homoglifos, BOM</text>

  <path class="edge" d="M230 88 H261" marker-end="url(#arr5)"/>

  <rect x="265" y="52" width="205" height="72" rx="10" fill="#121826" stroke="#38e1d3"/>
  <text x="281" y="76" class="n m">2</text>
  <text x="367" y="80" text-anchor="middle" class="t">entropia (Shannon)</text>
  <text x="367" y="102" text-anchor="middle" class="s">blob codificado destoa do código</text>

  <path class="edge" d="M470 88 H501" marker-end="url(#arr5)"/>

  <rect x="505" y="52" width="205" height="72" rx="10" fill="#121826" stroke="#38e1d3"/>
  <text x="521" y="76" class="n m">3</text>
  <text x="607" y="80" text-anchor="middle" class="t">regex (denylist)</text>
  <text x="607" y="102" text-anchor="middle" class="s">padrões curados, tempo linear</text>

  <path class="edge" d="M710 88 H741" marker-end="url(#arr5)"/>

  <rect x="745" y="52" width="205" height="72" rx="10" fill="#121826" stroke="#38e1d3"/>
  <text x="761" y="76" class="n m">4</text>
  <text x="847" y="80" text-anchor="middle" class="t">manifesto</text>
  <text x="847" y="102" text-anchor="middle" class="s">postinstall, scripts de build</text>

  <!-- descida -->
  <path class="edge" d="M847 124 V166" marker-end="url(#arr5)"/>

  <!-- fileira 2 (direita → esquerda) -->
  <rect x="745" y="170" width="205" height="72" rx="10" fill="#121826" stroke="#38e1d3"/>
  <text x="761" y="194" class="n m">5</text>
  <text x="847" y="198" text-anchor="middle" class="t">config de IDE</text>
  <text x="847" y="220" text-anchor="middle" class="s">regra de projeto envenenada</text>

  <path class="edge" d="M745 206 H714" marker-end="url(#arr5)"/>

  <rect x="505" y="170" width="205" height="72" rx="10" fill="#121826" stroke="#38e1d3"/>
  <text x="521" y="194" class="n m">6</text>
  <text x="607" y="198" text-anchor="middle" class="t">cadeia de exfil</text>
  <text x="607" y="220" text-anchor="middle" class="s">taint: fonte sensível → sink de rede</text>

  <path class="edge" d="M505 206 H474" marker-end="url(#arr5)"/>

  <rect x="265" y="170" width="205" height="72" rx="10" fill="#121826" stroke="#38e1d3"/>
  <text x="281" y="194" class="n m">7</text>
  <text x="367" y="198" text-anchor="middle" class="t">AST · visitors</text>
  <text x="367" y="220" text-anchor="middle" class="s">análise semântica por linguagem</text>

  <path class="edge" d="M265 206 H234" marker-end="url(#arr5)"/>

  <rect x="25" y="170" width="205" height="72" rx="10" fill="#121826" stroke="#38e1d3"/>
  <text x="41" y="194" class="n m">8</text>
  <text x="127" y="198" text-anchor="middle" class="t">decoder recursivo</text>
  <text x="127" y="220" text-anchor="middle" class="s">revela o escondido e reescaneia</text>

  <!-- severidade -->
  <path class="edge" d="M127 242 V284" stroke="#f5b54a" marker-end="url(#arr5A)"/>
  <rect x="25" y="288" width="205" height="64" rx="10" fill="#2a2410" stroke="#f5b54a" stroke-width="1.6"/>
  <text x="127" y="315" text-anchor="middle" class="t" fill="#ffeccb">severidade</text>
  <text x="127" y="337" text-anchor="middle" class="s" fill="#d9c08a">Clean · Suspicious · Malicious</text>

  <!-- nota -->
  <rect x="265" y="288" width="540" height="76" rx="8" fill="#0c1019" stroke="#21a99e" stroke-dasharray="4 3"/>
  <text x="535" y="314" text-anchor="middle" class="s" fill="#b8c4d6">A ordem é do barato ao caro: quem custa pouco roda primeiro.</text>
  <text x="535" y="334" text-anchor="middle" class="s" fill="#b8c4d6">O taint tracking liga a fonte sensível ao sink de rede; o decoder</text>
  <text x="535" y="352" text-anchor="middle" class="s" fill="#b8c4d6">reescaneia o que estava escondido em camadas de encoding.</text>
  <path d="M262 320 C250 320 244 316 234 314" fill="none" stroke="#21a99e" stroke-width="1.2" stroke-dasharray="4 3"/>
</svg>
