<svg viewBox="0 0 980 560" xmlns="http://www.w3.org/2000/svg" role="img" aria-label="O pretool (hook de vida curta, antes de executar) e o daemon (serviço que vigia o disco) usam o mesmo motor compute_severity; o pretool barra a escrita com exit 2, o daemon move o malicioso já no disco para quarentena, e o humano decide.">
  <defs>
    <marker id="arr6" viewBox="0 0 10 10" refX="8.5" refY="5" markerWidth="7.5" markerHeight="7.5" orient="auto-start-reverse"><path d="M0 0L10 5L0 10z" fill="#56708f"/></marker>
    <marker id="arr6Bad" viewBox="0 0 10 10" refX="8.5" refY="5" markerWidth="7.5" markerHeight="7.5" orient="auto-start-reverse"><path d="M0 0L10 5L0 10z" fill="#ff6b6b"/></marker>
    <marker id="arr6Qz" viewBox="0 0 10 10" refX="8.5" refY="5" markerWidth="7.5" markerHeight="7.5" orient="auto-start-reverse"><path d="M0 0L10 5L0 10z" fill="#f5b54a"/></marker>
    <marker id="arr6V" viewBox="0 0 10 10" refX="8.5" refY="5" markerWidth="7.5" markerHeight="7.5" orient="auto-start-reverse"><path d="M0 0L10 5L0 10z" fill="#b794f6"/></marker>
  </defs>
  <style>
    text{font-family:'Segoe UI',system-ui,-apple-system,Roboto,sans-serif}
    .t{fill:#e8edf6;font-size:15px;font-weight:600}
    .s{fill:#8595ab;font-size:12px}
    .m{font-family:'JetBrains Mono',ui-monospace,Consolas,monospace}
    .edge{stroke:#56708f;stroke-width:1.6;fill:none}
  </style>

  <!-- ação do agente -->
  <rect x="40" y="36" width="220" height="64" rx="10" fill="#0d1424" stroke="#5aa9ff"/>
  <text x="150" y="63" text-anchor="middle" class="t">ação do agente</text>
  <text x="150" y="85" text-anchor="middle" class="s" fill="#9db8dc">escrita de arquivo · comando</text>

  <path class="edge" d="M150 100 V158" marker-end="url(#arr6)"/>

  <!-- pretool -->
  <rect x="40" y="162" width="220" height="88" rx="10" fill="#121826" stroke="#38e1d3"/>
  <text x="150" y="194" text-anchor="middle" class="t">PRETOOL</text>
  <text x="150" y="216" text-anchor="middle" class="s">hook de vida curta,</text>
  <text x="150" y="234" text-anchor="middle" class="s">antes da execução</text>

  <!-- daemon -->
  <rect x="40" y="330" width="220" height="88" rx="10" fill="#121826" stroke="#38e1d3"/>
  <text x="150" y="362" text-anchor="middle" class="t">DAEMON</text>
  <text x="150" y="384" text-anchor="middle" class="s">serviço em 2º plano,</text>
  <text x="150" y="402" text-anchor="middle" class="s">vigia o filesystem</text>

  <!-- motor -->
  <path class="edge" d="M260 206 C320 210 350 232 380 252" marker-end="url(#arr6)"/>
  <path class="edge" d="M260 374 C320 370 350 348 380 328" marker-end="url(#arr6)"/>

  <rect x="385" y="232" width="260" height="116" rx="10" fill="#0d1f1d" stroke="#38e1d3" stroke-width="1.6"/>
  <text x="515" y="264" text-anchor="middle" class="t m" fill="#38e1d3">compute_severity</text>
  <text x="515" y="288" text-anchor="middle" class="s">o mesmo motor nas duas camadas</text>
  <text x="515" y="312" text-anchor="middle" class="s" fill="#b8c4d6">Clean · Suspicious · Malicious</text>
  <text x="515" y="332" text-anchor="middle" class="s">corroboração antes de condenar</text>

  <!-- saída: bloqueio -->
  <path class="edge" d="M645 264 C690 240 710 220 736 200" stroke="#ff6b6b" marker-end="url(#arr6Bad)"/>
  <text x="700" y="212" text-anchor="middle" class="s m" fill="#ff6b6b">hostil na escrita</text>
  <rect x="720" y="120" width="230" height="84" rx="10" fill="#2a1014" stroke="#ff6b6b"/>
  <text x="835" y="152" text-anchor="middle" class="t m" fill="#ffd7d7">exit 2</text>
  <text x="835" y="174" text-anchor="middle" class="s" fill="#e8a0a0">barra a escrita antes de tocar</text>
  <text x="835" y="192" text-anchor="middle" class="s" fill="#e8a0a0">o disco — nada a limpar</text>

  <!-- saída: quarentena -->
  <path class="edge" d="M645 316 C690 330 710 336 736 342" stroke="#f5b54a" marker-end="url(#arr6Qz)"/>
  <text x="700" y="360" text-anchor="middle" class="s m" fill="#f5b54a">malicioso no disco</text>
  <rect x="720" y="300" width="230" height="76" rx="10" fill="#2a2410" stroke="#f5b54a"/>
  <text x="835" y="330" text-anchor="middle" class="t" fill="#ffeccb">quarentena</text>
  <text x="835" y="352" text-anchor="middle" class="s" fill="#d9c08a">move, não deleta — reversível</text>

  <path class="edge" d="M835 376 V428" stroke="#b794f6" marker-end="url(#arr6V)"/>

  <!-- humano -->
  <rect x="720" y="432" width="230" height="76" rx="10" fill="#1e1830" stroke="#b794f6"/>
  <text x="835" y="462" text-anchor="middle" class="t" fill="#efe6ff">humano decide</text>
  <text x="835" y="486" text-anchor="middle" class="s m" fill="#b9a8dc">list · show · restore · purge</text>

  <!-- nota -->
  <rect x="120" y="460" width="480" height="64" rx="8" fill="#0c1019" stroke="#21a99e" stroke-dasharray="4 3"/>
  <text x="360" y="486" text-anchor="middle" class="s" fill="#b8c4d6">Duas camadas, um motor: o pretool age antes (síncrono), o daemon</text>
  <text x="360" y="506" text-anchor="middle" class="s" fill="#b8c4d6">age depois (assíncrono). Nada é deletado sem decisão humana.</text>
</svg>
