<svg viewBox="0 0 980 600" xmlns="http://www.w3.org/2000/svg" role="img" aria-label="Three independent layers (pretool, daemon, eBPF); the decision uses corroboration: one confirmatory signal suffices, a heuristic needs two distinct types, otherwise it stays Suspicious; on confirmation, reversible quarantine; protection is the sum of layers, the coefficient.">
  <defs>
    <marker id="arr9" viewBox="0 0 10 10" refX="8.5" refY="5" markerWidth="7.5" markerHeight="7.5" orient="auto-start-reverse"><path d="M0 0L10 5L0 10z" fill="#56708f"/></marker>
    <marker id="arr9Bad" viewBox="0 0 10 10" refX="8.5" refY="5" markerWidth="7.5" markerHeight="7.5" orient="auto-start-reverse"><path d="M0 0L10 5L0 10z" fill="#ff6b6b"/></marker>
    <marker id="arr9Qz" viewBox="0 0 10 10" refX="8.5" refY="5" markerWidth="7.5" markerHeight="7.5" orient="auto-start-reverse"><path d="M0 0L10 5L0 10z" fill="#f5b54a"/></marker>
    <marker id="arr9Ok" viewBox="0 0 10 10" refX="8.5" refY="5" markerWidth="7.5" markerHeight="7.5" orient="auto-start-reverse"><path d="M0 0L10 5L0 10z" fill="#5fd38a"/></marker>
  </defs>
  <style>
    text{font-family:'Segoe UI',system-ui,-apple-system,Roboto,sans-serif}
    .t{fill:#e8edf6;font-size:14.5px;font-weight:600}
    .s{fill:#8595ab;font-size:12px}
    .m{font-family:'JetBrains Mono',ui-monospace,Consolas,monospace}
    .edge{stroke:#56708f;stroke-width:1.6;fill:none}
  </style>

  <!-- camadas independentes -->
  <rect x="230" y="24" width="520" height="76" rx="10" fill="#1e1830" stroke="#b794f6"/>
  <text x="490" y="54" text-anchor="middle" class="t" fill="#efe6ff">3 independent layers: pretool · daemon · eBPF</text>
  <text x="490" y="78" text-anchor="middle" class="s" fill="#b9a8dc">if one fails, the next holds</text>

  <path class="edge" d="M490 100 V128" marker-end="url(#arr9)"/>

  <!-- painel de decisão -->
  <rect x="60" y="132" width="860" height="270" rx="12" fill="#0c1019" stroke="#243043"/>
  <text x="80" y="160" class="s m" fill="#38e1d3" font-weight="700" letter-spacing=".12em">DECISION BY CORROBORATION</text>

  <!-- Tier A -->
  <rect x="90" y="184" width="330" height="84" rx="10" fill="#121826" stroke="#38e1d3"/>
  <text x="255" y="214" text-anchor="middle" class="t">confirmatory signal (Tier A)</text>
  <text x="255" y="236" text-anchor="middle" class="s">curated deny-list, decode→exec, reverse</text>
  <text x="255" y="252" text-anchor="middle" class="s">shell, Nemesis bypass, exfil chain</text>

  <!-- Tier B -->
  <rect x="560" y="184" width="330" height="84" rx="10" fill="#121826" stroke="#38e1d3"/>
  <text x="725" y="214" text-anchor="middle" class="t">heuristic signal (Tier B)</text>
  <text x="725" y="236" text-anchor="middle" class="s">high entropy, isolated suspicious pattern:</text>
  <text x="725" y="252" text-anchor="middle" class="s">needs corroboration</text>

  <!-- Tier A → Malicious -->
  <path class="edge" d="M255 268 C270 300 300 318 330 330" stroke="#ff6b6b" marker-end="url(#arr9Bad)"/>
  <text x="255" y="300" text-anchor="middle" class="s m" fill="#ff6b6b">1 suffices</text>

  <!-- Tier B → Malicious / Suspicious -->
  <path class="edge" d="M640 268 C560 300 500 318 462 328" stroke="#ff6b6b" marker-end="url(#arr9Bad)"/>
  <text x="570" y="296" text-anchor="middle" class="s m" fill="#ff6b6b">2+ types agreeing</text>
  <path class="edge" d="M760 268 C775 292 780 302 784 312" stroke="#f5b54a" marker-end="url(#arr9Qz)"/>
  <text x="812" y="296" text-anchor="middle" class="s m" fill="#f5b54a">only 1 type</text>

  <!-- Malicious -->
  <rect x="330" y="332" width="160" height="52" rx="10" fill="#2a1014" stroke="#ff6b6b" stroke-width="1.6"/>
  <text x="410" y="364" text-anchor="middle" class="t m" fill="#ffd7d7">Malicious</text>

  <!-- Suspicious -->
  <rect x="660" y="316" width="230" height="68" rx="10" fill="#2a2410" stroke="#f5b54a"/>
  <text x="775" y="344" text-anchor="middle" class="t" fill="#ffeccb">Suspicious</text>
  <text x="775" y="366" text-anchor="middle" class="s" fill="#d9c08a">logs and keeps: does not move</text>

  <!-- quarentena -->
  <path class="edge" d="M410 402 V434" stroke="#5fd38a" marker-end="url(#arr9Ok)"/>
  <rect x="250" y="438" width="320" height="72" rx="10" fill="#0e2a1a" stroke="#5fd38a" stroke-width="1.6"/>
  <text x="410" y="468" text-anchor="middle" class="t" fill="#d7ffe6">reversible quarantine</text>
  <text x="410" y="490" text-anchor="middle" class="s" fill="#9fd8b4">moves (does not delete) · the human decides</text>

  <!-- coeficiente -->
  <rect x="250" y="534" width="480" height="48" rx="8" fill="#0c1019" stroke="#21a99e" stroke-dasharray="4 3"/>
  <text x="490" y="563" text-anchor="middle" class="s" fill="#b8c4d6">Protection = sum of layers (the coefficient), not the count of a feature.</text>
  <path d="M410 510 V532" fill="none" stroke="#21a99e" stroke-width="1.2" stroke-dasharray="4 3"/>
</svg>
