<svg viewBox="0 0 1000 880" xmlns="http://www.w3.org/2000/svg" role="img" aria-label="Fluxo do Nemesis: o agente de IA tenta uma ação; a camada 1 (pretool) intercepta antes de executar e bloqueia o hostil com exit 2; a camada 2 (daemon) isola em quarentena o que escapou para o disco; a camada 3 (eBPF, no kernel) é a rede de segurança; tudo é registrado localmente.">
  <defs>
    <marker id="arrF" viewBox="0 0 10 10" refX="8.5" refY="5" markerWidth="7.5" markerHeight="7.5" orient="auto-start-reverse"><path d="M0 0L10 5L0 10z" fill="#56708f"/></marker>
    <marker id="arrFOk" viewBox="0 0 10 10" refX="8.5" refY="5" markerWidth="7.5" markerHeight="7.5" orient="auto-start-reverse"><path d="M0 0L10 5L0 10z" fill="#5fd38a"/></marker>
    <marker id="arrFBad" viewBox="0 0 10 10" refX="8.5" refY="5" markerWidth="7.5" markerHeight="7.5" orient="auto-start-reverse"><path d="M0 0L10 5L0 10z" fill="#ff6b6b"/></marker>
    <marker id="arrFT" viewBox="0 0 10 10" refX="8.5" refY="5" markerWidth="7" markerHeight="7" orient="auto-start-reverse"><path d="M0 0L10 5L0 10z" fill="#21a99e"/></marker>
  </defs>
  <style>
    text{font-family:'Segoe UI',system-ui,-apple-system,Roboto,sans-serif}
    .t{fill:#e8edf6;font-size:15px;font-weight:600}
    .s{fill:#8595ab;font-size:12px}
    .m{font-family:'JetBrains Mono',ui-monospace,Consolas,monospace}
    .edge{stroke:#56708f;stroke-width:1.6;fill:none}
    .dash{stroke-dasharray:5 4}
  </style>

  <!-- agente -->
  <rect x="330" y="20" width="340" height="72" rx="10" fill="#0d1424" stroke="#5aa9ff"/>
  <text x="500" y="50" text-anchor="middle" class="t">AGENTE DE IA</text>
  <text x="500" y="74" text-anchor="middle" class="s" fill="#9db8dc">Claude · Cursor · Codex · Devin · Copilot</text>

  <path class="edge" d="M500 92 V126" marker-end="url(#arrF)"/>

  <!-- ação -->
  <rect x="310" y="130" width="380" height="70" rx="10" fill="#121826" stroke="#38e1d3"/>
  <text x="500" y="158" text-anchor="middle" class="t">ação do agente</text>
  <text x="500" y="182" text-anchor="middle" class="s">escrita de arquivo ou comando shell</text>

  <path class="edge" d="M500 200 V234" marker-end="url(#arrF)"/>

  <!-- camada 1 -->
  <rect x="310" y="238" width="380" height="70" rx="10" fill="#0d1f1d" stroke="#38e1d3" stroke-width="1.6"/>
  <text x="500" y="266" text-anchor="middle" class="t" fill="#38e1d3">CAMADA 1 · PRETOOL HOOK</text>
  <text x="500" y="290" text-anchor="middle" class="s">intercepta antes da execução</text>

  <path class="edge" d="M500 308 V342" marker-end="url(#arrF)"/>

  <!-- motor -->
  <rect x="310" y="346" width="380" height="70" rx="10" fill="#121826" stroke="#38e1d3"/>
  <text x="500" y="374" text-anchor="middle" class="t m" fill="#38e1d3">motor scan_content</text>
  <text x="500" y="398" text-anchor="middle" class="s">análise de conteúdo + comando (6 layers)</text>

  <path class="edge" d="M500 416 V448" marker-end="url(#arrF)"/>

  <!-- decisão -->
  <polygon points="500,450 590,505 500,560 410,505" fill="#121826" stroke="#38e1d3"/>
  <text x="500" y="511" text-anchor="middle" class="t">hostil?</text>

  <!-- permite -->
  <path class="edge" d="M414 490 C330 470 250 480 306 505 C260 495 220 500 184 505" stroke="none"/>
  <path class="edge" d="M410 505 C350 505 320 505 306 505" stroke="#5fd38a" marker-end="url(#arrFOk)"/>
  <text x="358" y="493" text-anchor="middle" class="s m" fill="#5fd38a">não</text>
  <rect x="60" y="470" width="240" height="70" rx="10" fill="#0e2a1a" stroke="#5fd38a"/>
  <text x="180" y="498" text-anchor="middle" class="t" fill="#d7ffe6">PERMITE</text>
  <text x="180" y="522" text-anchor="middle" class="s" fill="#9fd8b4">a ação segue normal</text>

  <!-- bloqueia -->
  <path class="edge" d="M590 505 C650 505 680 505 694 505" stroke="#ff6b6b" marker-end="url(#arrFBad)"/>
  <text x="642" y="493" text-anchor="middle" class="s m" fill="#ff6b6b">sim</text>
  <rect x="700" y="470" width="250" height="70" rx="10" fill="#2a1014" stroke="#ff6b6b" stroke-width="1.6"/>
  <text x="825" y="498" text-anchor="middle" class="t" fill="#ffd7d7">BLOQUEIA</text>
  <text x="825" y="522" text-anchor="middle" class="s m" fill="#e8a0a0">exit 2 · nada executa</text>

  <!-- camada 2 -->
  <path class="edge dash" d="M825 540 V596" stroke="#f5b54a" marker-end="url(#arrF)"/>
  <text x="838" y="574" class="s m" fill="#f5b54a">chegou ao disco?</text>
  <rect x="700" y="600" width="250" height="70" rx="10" fill="#0e2a1a" stroke="#5fd38a" stroke-width="1.6"/>
  <text x="825" y="628" text-anchor="middle" class="t" fill="#5fd38a">CAMADA 2 · DAEMON</text>
  <text x="825" y="652" text-anchor="middle" class="s">vigia o filesystem em 2º plano</text>

  <path class="edge" d="M825 670 V704" stroke="#f5b54a" marker-end="url(#arrF)"/>

  <rect x="700" y="708" width="250" height="66" rx="10" fill="#2a2410" stroke="#f5b54a"/>
  <text x="825" y="734" text-anchor="middle" class="t" fill="#ffeccb">QUARENTENA</text>
  <text x="825" y="756" text-anchor="middle" class="s" fill="#d9c08a">isola o arquivo · não deleta</text>

  <path class="edge" d="M825 774 V806" marker-end="url(#arrF)"/>

  <rect x="700" y="810" width="250" height="60" rx="10" fill="#1e1830" stroke="#b794f6"/>
  <text x="825" y="836" text-anchor="middle" class="t" fill="#efe6ff">humano decide</text>
  <text x="825" y="856" text-anchor="middle" class="s m" fill="#b9a8dc">restore · purge</text>

  <!-- camada 3 -->
  <path class="edge dash" d="M310 178 C180 200 120 260 120 320 C120 400 130 500 150 596" stroke="#b794f6" marker-end="url(#arrF)"/>
  <text x="88" y="330" class="s m" fill="#b794f6">Linux ·</text>
  <text x="88" y="348" class="s m" fill="#b794f6">paralelo</text>
  <rect x="60" y="600" width="280" height="80" rx="10" fill="#1e1830" stroke="#b794f6" stroke-width="1.6"/>
  <text x="200" y="628" text-anchor="middle" class="t" fill="#b794f6">CAMADA 3 · eBPF (kernel)</text>
  <text x="200" y="650" text-anchor="middle" class="s" fill="#b9a8dc">rede de contenção caso o pretool</text>
  <text x="200" y="668" text-anchor="middle" class="s" fill="#b9a8dc">seja desligado ou contornado</text>

  <path class="edge" d="M200 680 V712" stroke="#ff6b6b" marker-end="url(#arrFBad)"/>

  <rect x="75" y="716" width="250" height="64" rx="10" fill="#2a1014" stroke="#ff6b6b"/>
  <text x="200" y="742" text-anchor="middle" class="t" fill="#ffd7d7">BLOQUEIA no kernel</text>
  <text x="200" y="764" text-anchor="middle" class="s m" fill="#e8a0a0">-EPERM</text>

  <!-- log -->
  <rect x="390" y="790" width="260" height="72" rx="10" fill="#121826" stroke="#21a99e"/>
  <text x="520" y="818" text-anchor="middle" class="t" fill="#cffbee">log 100% local</text>
  <text x="520" y="842" text-anchor="middle" class="s" fill="#8fb8ad">nada sai da sua máquina</text>
  <path class="edge dash" d="M180 540 C200 640 300 760 386 806" stroke="#21a99e" stroke-width="1.2" marker-end="url(#arrFT)"/>
  <path class="edge dash" d="M325 748 C350 776 360 790 386 800" stroke="#21a99e" stroke-width="1.2" marker-end="url(#arrFT)"/>
  <path class="edge dash" d="M760 545 C700 640 660 740 654 786" stroke="#21a99e" stroke-width="1.2" marker-end="url(#arrFT)"/>
</svg>
