<svg viewBox="0 0 980 560" xmlns="http://www.w3.org/2000/svg" role="img" aria-label="Comparação das três camadas: camada 1 pretool age antes de executar, em userspace síncrono, escaneia e nega com exit 2; camada 2 daemon age depois, assíncrono, isola arquivos em quarentena; camada 3 eBPF age no kernel se o pretool foi contornado, negando com -EPERM. As camadas são independentes e a proteção é a soma delas.">
  <defs>
    <marker id="arrTC" viewBox="0 0 10 10" refX="8.5" refY="5" markerWidth="7.5" markerHeight="7.5" orient="auto-start-reverse"><path d="M0 0L10 5L0 10z" fill="#56708f"/></marker>
  </defs>
  <style>
    text{font-family:'Segoe UI',system-ui,-apple-system,Roboto,sans-serif}
    .h{font-size:15px;font-weight:700;letter-spacing:.04em}
    .k{font-family:'JetBrains Mono',ui-monospace,Consolas,monospace;font-size:10.5px;font-weight:700;letter-spacing:.14em}
    .v{fill:#e8edf6;font-size:13px;font-weight:600}
    .s{fill:#8595ab;font-size:12px}
  </style>

  <!-- Camada 1 -->
  <rect x="30" y="30" width="290" height="400" rx="12" fill="#0d1f1d" stroke="#38e1d3" stroke-width="1.6"/>
  <rect x="30" y="30" width="290" height="52" rx="12" fill="#38e1d3" opacity=".12"/>
  <text x="175" y="63" text-anchor="middle" class="h" fill="#38e1d3">CAMADA 1 · PRETOOL</text>

  <text x="52" y="112" class="k" fill="#38e1d3">QUANDO</text>
  <text x="52" y="134" class="v">antes da execução</text>
  <line x1="52" y1="152" x2="298" y2="152" stroke="#1b2433"/>

  <text x="52" y="184" class="k" fill="#38e1d3">ONDE</text>
  <text x="52" y="206" class="v">userspace · síncrono</text>
  <line x1="52" y1="224" x2="298" y2="224" stroke="#1b2433"/>

  <text x="52" y="256" class="k" fill="#38e1d3">FAZ</text>
  <text x="52" y="278" class="v">escaneia e nega com exit 2</text>
  <line x1="52" y1="296" x2="298" y2="296" stroke="#1b2433"/>

  <text x="52" y="328" class="k" fill="#38e1d3">PEGA</text>
  <text x="52" y="350" class="v">ação ou comando hostil</text>
  <text x="52" y="372" class="s">no momento em que tenta executar</text>

  <path d="M320 230 H356" fill="none" stroke="#56708f" stroke-width="1.6" marker-end="url(#arrTC)"/>

  <!-- Camada 2 -->
  <rect x="360" y="30" width="290" height="400" rx="12" fill="#0e2a1a" stroke="#5fd38a" stroke-width="1.6"/>
  <rect x="360" y="30" width="290" height="52" rx="12" fill="#5fd38a" opacity=".12"/>
  <text x="505" y="63" text-anchor="middle" class="h" fill="#5fd38a">CAMADA 2 · DAEMON</text>

  <text x="382" y="112" class="k" fill="#5fd38a">QUANDO</text>
  <text x="382" y="134" class="v">pós-ação · segundo plano</text>
  <line x1="382" y1="152" x2="628" y2="152" stroke="#1b3324"/>

  <text x="382" y="184" class="k" fill="#5fd38a">ONDE</text>
  <text x="382" y="206" class="v">userspace · assíncrono</text>
  <line x1="382" y1="224" x2="628" y2="224" stroke="#1b3324"/>

  <text x="382" y="256" class="k" fill="#5fd38a">FAZ</text>
  <text x="382" y="278" class="v">move o arquivo p/ quarentena</text>
  <line x1="382" y1="296" x2="628" y2="296" stroke="#1b3324"/>

  <text x="382" y="328" class="k" fill="#5fd38a">PEGA</text>
  <text x="382" y="350" class="v">malware que chegou ao disco</text>
  <text x="382" y="372" class="s">reversível: restore ou purge</text>

  <path d="M650 230 H686" fill="none" stroke="#56708f" stroke-width="1.6" marker-end="url(#arrTC)"/>

  <!-- Camada 3 -->
  <rect x="690" y="30" width="290" height="400" rx="12" fill="#1e1830" stroke="#b794f6" stroke-width="1.6"/>
  <rect x="690" y="30" width="290" height="52" rx="12" fill="#b794f6" opacity=".12"/>
  <text x="835" y="63" text-anchor="middle" class="h" fill="#b794f6">CAMADA 3 · eBPF</text>

  <text x="712" y="112" class="k" fill="#b794f6">QUANDO</text>
  <text x="712" y="134" class="v">se o pretool for contornado</text>
  <line x1="712" y1="152" x2="958" y2="152" stroke="#2c2440"/>

  <text x="712" y="184" class="k" fill="#b794f6">ONDE</text>
  <text x="712" y="206" class="v">kernel · Linux · opt-in</text>
  <line x1="712" y1="224" x2="958" y2="224" stroke="#2c2440"/>

  <text x="712" y="256" class="k" fill="#b794f6">FAZ</text>
  <text x="712" y="278" class="v">nega com -EPERM no kernel</text>
  <line x1="712" y1="296" x2="958" y2="296" stroke="#2c2440"/>

  <text x="712" y="328" class="k" fill="#b794f6">PEGA</text>
  <text x="712" y="350" class="v">exec + egress do agente</text>
  <text x="712" y="372" class="s">escopo pelo cgroup do agente</text>

  <!-- nota -->
  <rect x="140" y="470" width="700" height="60" rx="8" fill="#0c1019" stroke="#21a99e" stroke-dasharray="4 3"/>
  <text x="490" y="496" text-anchor="middle" class="s" fill="#b8c4d6">Camadas independentes: se uma falha, a próxima segura. C1 e C2 compartilham o mesmo motor.</text>
  <text x="490" y="516" text-anchor="middle" class="s" fill="#b8c4d6">Defesa = soma das camadas (o coeficiente). No macOS, C1 + C2 é o design; o eBPF é reforço do Linux.</text>
</svg>
